<?xml version="1.0" encoding="UTF-8"?><svg id="Layer_1" xmlns="http://www.w3.org/2000/svg" viewBox="0 0 533.47 141.86" fill="#ffffff"><path d="M156.84,100.82v-57.48h37.8v9.76h-26.04v16.05h23.49v9.6h-23.49v22.06h-11.77Z"/><path d="M205.56,52.07c-1.75,0-3.24-.58-4.47-1.74s-1.85-2.56-1.85-4.2.62-3.05,1.85-4.2,2.73-1.74,4.47-1.74,3.25.58,4.49,1.74c1.25,1.16,1.87,2.56,1.87,4.2s-.62,3.05-1.87,4.2c-1.25,1.16-2.75,1.74-4.49,1.74ZM199.78,100.82v-43.13h11.57v43.13h-11.57Z"/><path d="M237.51,101.67c-4.4,0-8.19-.9-11.38-2.7-3.19-1.8-5.64-4.36-7.35-7.68-1.71-3.32-2.56-7.25-2.56-11.8s.85-8.34,2.55-11.69c1.7-3.34,4.1-5.95,7.21-7.83,3.11-1.88,6.76-2.82,10.96-2.82,2.83,0,5.46.45,7.91,1.35,2.44.9,4.59,2.26,6.44,4.07,1.85,1.81,3.3,4.08,4.34,6.81,1.04,2.73,1.56,5.94,1.56,9.64v3.24h-36.22v-7.25h30.55l-5.4,1.93c0-2.24-.34-4.19-1.02-5.84-.68-1.66-1.7-2.94-3.05-3.86-1.35-.91-3.02-1.37-5-1.37s-3.71.46-5.11,1.39c-1.4.93-2.46,2.18-3.18,3.76-.72,1.58-1.08,3.39-1.08,5.42v5.13c0,2.49.42,4.59,1.25,6.29.83,1.7,2.01,2.97,3.51,3.82,1.5.85,3.26,1.27,5.27,1.27,1.36,0,2.6-.19,3.7-.58,1.11-.39,2.05-.96,2.83-1.72.78-.76,1.38-1.69,1.79-2.8l10.49,1.97c-.69,2.37-1.9,4.44-3.63,6.23-1.72,1.79-3.88,3.17-6.46,4.15-2.58.98-5.56,1.47-8.93,1.47Z"/><path d="M273.5,43.35v57.48h-11.57v-57.48h11.57Z"/><path d="M295.91,101.56c-3.29,0-6.27-.85-8.93-2.57-2.66-1.71-4.76-4.22-6.31-7.52s-2.31-7.35-2.31-12.13.8-9.01,2.39-12.31c1.59-3.29,3.72-5.76,6.36-7.41,2.65-1.65,5.57-2.47,8.76-2.47,2.44,0,4.47.41,6.1,1.23,1.62.82,2.93,1.84,3.93,3.05,1,1.21,1.75,2.38,2.24,3.51h.38v-21.6h11.57v57.48h-11.38v-6.9h-.58c-.52,1.16-1.28,2.32-2.3,3.49-1.02,1.17-2.33,2.15-3.95,2.95-1.62.8-3.61,1.2-5.98,1.2ZM299.5,92.26c1.95,0,3.62-.54,5.01-1.62s2.44-2.59,3.16-4.53c.72-1.94,1.08-4.21,1.08-6.81s-.36-4.89-1.06-6.81c-.71-1.92-1.75-3.41-3.14-4.47-1.39-1.07-3.07-1.6-5.05-1.6s-3.74.55-5.11,1.66c-1.38,1.11-2.41,2.62-3.11,4.55s-1.04,4.15-1.04,6.67.35,4.76,1.06,6.71c.71,1.96,1.75,3.49,3.12,4.59,1.38,1.11,3.07,1.66,5.07,1.66Z"/><path d="M342.63,100.82v-57.48h37.8v9.76h-26.04v16.05h23.49v9.6h-23.49v22.06h-11.77Z"/><path d="M397.14,43.35v57.48h-11.57v-57.48h11.57Z"/><path d="M423.11,101.67c-4.32,0-8.06-.93-11.22-2.8-3.16-1.86-5.6-4.46-7.31-7.79-1.71-3.33-2.56-7.21-2.56-11.63s.85-8.38,2.56-11.71c1.71-3.33,4.15-5.93,7.31-7.79,3.16-1.86,6.9-2.8,11.22-2.8s8.09.93,11.24,2.8c3.15,1.86,5.58,4.46,7.29,7.79,1.71,3.33,2.56,7.23,2.56,11.71s-.85,8.3-2.56,11.63c-1.71,3.33-4.14,5.93-7.29,7.79-3.15,1.87-6.9,2.8-11.24,2.8ZM423.11,92.57c2.06,0,3.78-.57,5.17-1.72s2.43-2.71,3.12-4.71c.7-1.99,1.04-4.24,1.04-6.73s-.35-4.81-1.04-6.79c-.69-1.98-1.74-3.54-3.12-4.67-1.39-1.13-3.11-1.7-5.17-1.7s-3.77.57-5.15,1.7c-1.38,1.13-2.41,2.69-3.11,4.67-.69,1.98-1.04,4.24-1.04,6.79s.35,4.74,1.04,6.73c.69,1.99,1.73,3.56,3.11,4.71,1.38,1.14,3.09,1.72,5.15,1.72Z"/><path d="M457.02,100.82l-12.73-43.13h12.15l3.74,15.93c.64,2.85,1.34,5.96,2.08,9.32.75,3.35,1.43,7.07,2.04,11.13h-1.31c.67-3.96,1.4-7.63,2.2-11.01.8-3.38,1.54-6.52,2.24-9.43l3.94-15.93h10.65l3.86,15.93c.64,2.91,1.36,6.04,2.16,9.39.8,3.36,1.54,7.04,2.24,11.05h-1.31c.62-3.99,1.28-7.66,1.99-11.01.71-3.35,1.39-6.5,2.06-9.43l3.74-15.93h12.31l-12.81,43.13h-11.76l-4.78-16.62c-.46-1.67-.93-3.52-1.39-5.54-.46-2.02-.91-4.08-1.35-6.17-.44-2.1-.89-4.06-1.35-5.88h2.04c-.44,1.83-.88,3.79-1.33,5.88-.45,2.1-.91,4.16-1.37,6.19-.46,2.03-.93,3.87-1.39,5.52l-4.78,16.62h-11.76Z"/><path d="M120.56,16.3H37.52c-7.24,0-13.1,5.87-13.1,13.1v83.04c0,7.24,5.87,13.1,13.1,13.1h83.04c7.24,0,13.1-5.87,13.1-13.1V29.41c0-7.24-5.87-13.1-13.1-13.1ZM70.79,103.93c0,2.28-1.85,4.12-4.12,4.12h-20.62c-2.28,0-4.12-1.85-4.12-4.12v-20.62c0-2.28,1.85-4.12,4.12-4.12h20.62c2.28,0,4.12,1.85,4.12,4.12v20.62ZM70.79,58.56c0,2.28-1.85,4.12-4.12,4.12h-20.62c-2.28,0-4.12-1.85-4.12-4.12v-20.62c0-2.28,1.85-4.12,4.12-4.12h20.62c2.28,0,4.12,1.85,4.12,4.12v20.62ZM116.16,103.93c0,2.28-1.85,4.12-4.12,4.12h-20.62c-2.28,0-4.12-1.85-4.12-4.12v-20.62c0-2.28,1.85-4.12,4.12-4.12h20.62c2.28,0,4.12,1.85,4.12,4.12v20.62ZM116.16,58.56c0,2.28-1.85,4.12-4.12,4.12h-20.62c-2.28,0-4.12-1.85-4.12-4.12v-20.62c0-2.28,1.85-4.12,4.12-4.12h20.62c2.28,0,4.12,1.85,4.12,4.12v20.62Z"/></svg>
