<?xml version="1.0" encoding="UTF-8"?>
<svg id="Layer_1" xmlns="http://www.w3.org/2000/svg" viewBox="0 0 150 150" role="img" aria-label="FieldFlow">
	<style>
		path {
			fill: #09090b;
		}
		@media (prefers-color-scheme: dark) {
			path {
				fill: #fafafa;
			}
		}
	</style>
	<path
		d="M125.64,8.38H24.36c-8.83,0-15.98,7.16-15.98,15.98v101.27c0,8.83,7.16,15.98,15.98,15.98h101.27c8.83,0,15.98-7.16,15.98-15.98V24.36c0-8.83-7.16-15.98-15.98-15.98ZM64.94,115.24c0,2.78-2.25,5.03-5.03,5.03h-25.15c-2.78,0-5.03-2.25-5.03-5.03v-25.15c0-2.78,2.25-5.03,5.03-5.03h25.15c2.78,0,5.03,2.25,5.03,5.03v25.15ZM64.94,59.91c0,2.78-2.25,5.03-5.03,5.03h-25.15c-2.78,0-5.03-2.25-5.03-5.03v-25.15c0-2.78,2.25-5.03,5.03-5.03h25.15c2.78,0,5.03,2.25,5.03,5.03v25.15ZM120.27,115.24c0,2.78-2.25,5.03-5.03,5.03h-25.15c-2.78,0-5.03-2.25-5.03-5.03v-25.15c0-2.78,2.25-5.03,5.03-5.03h25.15c2.78,0,5.03,2.25,5.03,5.03v25.15ZM120.27,59.91c0,2.78-2.25,5.03-5.03,5.03h-25.15c-2.78,0-5.03-2.25-5.03-5.03v-25.15c0-2.78,2.25-5.03,5.03-5.03h25.15c2.78,0,5.03,2.25,5.03,5.03v25.15Z"
	/>
</svg>
